<mxfile host="Electron" agent="Mozilla/5.0 (Windows NT 10.0; Win64; x64) AppleWebKit/537.36 (KHTML, like Gecko) draw.io/26.1.1 Chrome/132.0.6834.210 Electron/34.3.3 Safari/537.36" version="26.1.1">
  <diagram name="Page-1" id="MFXt4hjYtBAGhJvobqSD">
    <mxGraphModel dx="2074" dy="1196" grid="1" gridSize="10" guides="1" tooltips="1" connect="1" arrows="1" fold="1" page="1" pageScale="1" pageWidth="850" pageHeight="1100" math="0" shadow="0">
      <root>
        <mxCell id="0" />
        <mxCell id="1" parent="0" />
        <mxCell id="giyY5YTOtmJkotDWjuk0-1" value="" style="rounded=0;whiteSpace=wrap;html=1;fillColor=none;dashed=1;" parent="1" vertex="1">
          <mxGeometry x="40" y="170" width="200" height="530" as="geometry" />
        </mxCell>
        <mxCell id="giyY5YTOtmJkotDWjuk0-2" value="&lt;font style=&quot;font-size: 18px;&quot;&gt;Sources&lt;/font&gt;" style="rounded=0;whiteSpace=wrap;html=1;strokeColor=none;" parent="1" vertex="1">
          <mxGeometry x="80" y="150" width="120" height="40" as="geometry" />
        </mxCell>
        <mxCell id="giyY5YTOtmJkotDWjuk0-15" style="edgeStyle=orthogonalEdgeStyle;rounded=0;orthogonalLoop=1;jettySize=auto;html=1;" parent="1" source="giyY5YTOtmJkotDWjuk0-3" target="giyY5YTOtmJkotDWjuk0-13" edge="1">
          <mxGeometry relative="1" as="geometry" />
        </mxCell>
        <mxCell id="giyY5YTOtmJkotDWjuk0-16" style="edgeStyle=orthogonalEdgeStyle;rounded=0;orthogonalLoop=1;jettySize=auto;html=1;entryX=0;entryY=0.5;entryDx=0;entryDy=0;" parent="1" source="giyY5YTOtmJkotDWjuk0-3" target="giyY5YTOtmJkotDWjuk0-12" edge="1">
          <mxGeometry relative="1" as="geometry" />
        </mxCell>
        <mxCell id="giyY5YTOtmJkotDWjuk0-17" style="edgeStyle=orthogonalEdgeStyle;rounded=0;orthogonalLoop=1;jettySize=auto;html=1;entryX=0;entryY=0.5;entryDx=0;entryDy=0;" parent="1" source="giyY5YTOtmJkotDWjuk0-3" target="giyY5YTOtmJkotDWjuk0-14" edge="1">
          <mxGeometry relative="1" as="geometry" />
        </mxCell>
        <mxCell id="giyY5YTOtmJkotDWjuk0-3" value="&lt;font style=&quot;font-size: 20px;&quot;&gt;&lt;b style=&quot;&quot;&gt;ERP&lt;/b&gt;&lt;/font&gt;" style="image;aspect=fixed;html=1;points=[];align=center;fontSize=12;image=img/lib/azure2/general/Folder_Blank.svg;" parent="1" vertex="1">
          <mxGeometry x="103.03" y="545" width="73.93" height="60" as="geometry" />
        </mxCell>
        <mxCell id="giyY5YTOtmJkotDWjuk0-18" style="edgeStyle=orthogonalEdgeStyle;rounded=0;orthogonalLoop=1;jettySize=auto;html=1;" parent="1" source="giyY5YTOtmJkotDWjuk0-4" target="giyY5YTOtmJkotDWjuk0-10" edge="1">
          <mxGeometry relative="1" as="geometry" />
        </mxCell>
        <mxCell id="giyY5YTOtmJkotDWjuk0-19" style="edgeStyle=orthogonalEdgeStyle;rounded=0;orthogonalLoop=1;jettySize=auto;html=1;entryX=0;entryY=0.5;entryDx=0;entryDy=0;" parent="1" source="giyY5YTOtmJkotDWjuk0-4" target="giyY5YTOtmJkotDWjuk0-9" edge="1">
          <mxGeometry relative="1" as="geometry" />
        </mxCell>
        <mxCell id="giyY5YTOtmJkotDWjuk0-20" style="edgeStyle=orthogonalEdgeStyle;rounded=0;orthogonalLoop=1;jettySize=auto;html=1;entryX=0;entryY=0.5;entryDx=0;entryDy=0;" parent="1" source="giyY5YTOtmJkotDWjuk0-4" target="giyY5YTOtmJkotDWjuk0-11" edge="1">
          <mxGeometry relative="1" as="geometry" />
        </mxCell>
        <mxCell id="giyY5YTOtmJkotDWjuk0-4" value="&lt;font style=&quot;font-size: 20px;&quot;&gt;&lt;b style=&quot;&quot;&gt;CRM&lt;/b&gt;&lt;/font&gt;" style="image;aspect=fixed;html=1;points=[];align=center;fontSize=12;image=img/lib/azure2/general/Folder_Blank.svg;" parent="1" vertex="1">
          <mxGeometry x="105.5" y="327" width="69" height="56.00000000000001" as="geometry" />
        </mxCell>
        <mxCell id="giyY5YTOtmJkotDWjuk0-7" value="" style="rounded=1;whiteSpace=wrap;html=1;fillStyle=hatch;fillColor=#ffe6cc;strokeColor=#d79b00;" parent="1" vertex="1">
          <mxGeometry x="320" y="230" width="200" height="470" as="geometry" />
        </mxCell>
        <mxCell id="giyY5YTOtmJkotDWjuk0-8" value="&lt;b&gt;&lt;font style=&quot;font-size: 18px;&quot;&gt;Bronze Layer&lt;/font&gt;&lt;/b&gt;" style="rounded=1;whiteSpace=wrap;html=1;fillColor=#ffe6cc;strokeColor=#d79b00;fontSize=16;" parent="1" vertex="1">
          <mxGeometry x="320" y="170" width="200" height="50" as="geometry" />
        </mxCell>
        <mxCell id="DLgcKnbPgFEMm8L9QBdC-9" style="edgeStyle=orthogonalEdgeStyle;rounded=0;orthogonalLoop=1;jettySize=auto;html=1;entryX=0;entryY=0.5;entryDx=0;entryDy=0;" parent="1" source="giyY5YTOtmJkotDWjuk0-9" target="DLgcKnbPgFEMm8L9QBdC-3" edge="1">
          <mxGeometry relative="1" as="geometry" />
        </mxCell>
        <mxCell id="giyY5YTOtmJkotDWjuk0-9" value="&lt;font style=&quot;font-size: 14px;&quot;&gt;crm_cust_info&lt;/font&gt;" style="rounded=1;whiteSpace=wrap;html=1;fillColor=#ffe6cc;strokeColor=#d79b00;fontSize=16;" parent="1" vertex="1">
          <mxGeometry x="330" y="270" width="180" height="50" as="geometry" />
        </mxCell>
        <mxCell id="DLgcKnbPgFEMm8L9QBdC-10" style="edgeStyle=orthogonalEdgeStyle;rounded=0;orthogonalLoop=1;jettySize=auto;html=1;entryX=0;entryY=0.5;entryDx=0;entryDy=0;" parent="1" source="giyY5YTOtmJkotDWjuk0-10" target="DLgcKnbPgFEMm8L9QBdC-4" edge="1">
          <mxGeometry relative="1" as="geometry" />
        </mxCell>
        <mxCell id="giyY5YTOtmJkotDWjuk0-10" value="&lt;font style=&quot;font-size: 14px;&quot;&gt;crm_prd_info&lt;/font&gt;" style="rounded=1;whiteSpace=wrap;html=1;fillColor=#ffe6cc;strokeColor=#d79b00;fontSize=16;" parent="1" vertex="1">
          <mxGeometry x="330" y="330" width="180" height="50" as="geometry" />
        </mxCell>
        <mxCell id="DLgcKnbPgFEMm8L9QBdC-11" style="edgeStyle=orthogonalEdgeStyle;rounded=0;orthogonalLoop=1;jettySize=auto;html=1;entryX=0;entryY=0.5;entryDx=0;entryDy=0;" parent="1" source="giyY5YTOtmJkotDWjuk0-11" target="DLgcKnbPgFEMm8L9QBdC-5" edge="1">
          <mxGeometry relative="1" as="geometry" />
        </mxCell>
        <mxCell id="giyY5YTOtmJkotDWjuk0-11" value="&lt;font style=&quot;font-size: 14px;&quot;&gt;crm_sales_details&lt;/font&gt;" style="rounded=1;whiteSpace=wrap;html=1;fillColor=#ffe6cc;strokeColor=#d79b00;fontSize=16;" parent="1" vertex="1">
          <mxGeometry x="330" y="390" width="180" height="50" as="geometry" />
        </mxCell>
        <mxCell id="DLgcKnbPgFEMm8L9QBdC-12" style="edgeStyle=orthogonalEdgeStyle;rounded=0;orthogonalLoop=1;jettySize=auto;html=1;entryX=0;entryY=0.5;entryDx=0;entryDy=0;" parent="1" source="giyY5YTOtmJkotDWjuk0-12" target="DLgcKnbPgFEMm8L9QBdC-6" edge="1">
          <mxGeometry relative="1" as="geometry" />
        </mxCell>
        <mxCell id="giyY5YTOtmJkotDWjuk0-12" value="&lt;font style=&quot;font-size: 14px;&quot;&gt;erp_cust_az12&lt;/font&gt;" style="rounded=1;whiteSpace=wrap;html=1;fillColor=#ffe6cc;strokeColor=#d79b00;fontSize=16;" parent="1" vertex="1">
          <mxGeometry x="330" y="490" width="180" height="50" as="geometry" />
        </mxCell>
        <mxCell id="DLgcKnbPgFEMm8L9QBdC-13" style="edgeStyle=orthogonalEdgeStyle;rounded=0;orthogonalLoop=1;jettySize=auto;html=1;entryX=0;entryY=0.5;entryDx=0;entryDy=0;" parent="1" source="giyY5YTOtmJkotDWjuk0-13" target="DLgcKnbPgFEMm8L9QBdC-7" edge="1">
          <mxGeometry relative="1" as="geometry" />
        </mxCell>
        <mxCell id="giyY5YTOtmJkotDWjuk0-13" value="&lt;font style=&quot;font-size: 14px;&quot;&gt;erp_loc_a101&lt;/font&gt;" style="rounded=1;whiteSpace=wrap;html=1;fillColor=#ffe6cc;strokeColor=#d79b00;fontSize=16;" parent="1" vertex="1">
          <mxGeometry x="330" y="550" width="180" height="50" as="geometry" />
        </mxCell>
        <mxCell id="DLgcKnbPgFEMm8L9QBdC-14" style="edgeStyle=orthogonalEdgeStyle;rounded=0;orthogonalLoop=1;jettySize=auto;html=1;entryX=0;entryY=0.5;entryDx=0;entryDy=0;" parent="1" source="giyY5YTOtmJkotDWjuk0-14" target="DLgcKnbPgFEMm8L9QBdC-8" edge="1">
          <mxGeometry relative="1" as="geometry" />
        </mxCell>
        <mxCell id="giyY5YTOtmJkotDWjuk0-14" value="&lt;font style=&quot;font-size: 14px;&quot;&gt;erp_px_cat_g1v2&lt;/font&gt;" style="rounded=1;whiteSpace=wrap;html=1;fillColor=#ffe6cc;strokeColor=#d79b00;fontSize=16;" parent="1" vertex="1">
          <mxGeometry x="330" y="610" width="180" height="50" as="geometry" />
        </mxCell>
        <mxCell id="DLgcKnbPgFEMm8L9QBdC-1" value="" style="rounded=1;whiteSpace=wrap;html=1;fillStyle=hatch;fillColor=#f5f5f5;strokeColor=#666666;fontColor=#333333;" parent="1" vertex="1">
          <mxGeometry x="610" y="230" width="200" height="470" as="geometry" />
        </mxCell>
        <mxCell id="DLgcKnbPgFEMm8L9QBdC-2" value="&lt;b&gt;&lt;font style=&quot;font-size: 18px;&quot;&gt;Silver Layer&lt;/font&gt;&lt;/b&gt;" style="rounded=1;whiteSpace=wrap;html=1;fillColor=#f5f5f5;strokeColor=#666666;fontSize=16;fontColor=#333333;" parent="1" vertex="1">
          <mxGeometry x="610" y="170" width="200" height="50" as="geometry" />
        </mxCell>
        <mxCell id="DLgcKnbPgFEMm8L9QBdC-3" value="&lt;font style=&quot;font-size: 14px;&quot;&gt;crm_cust_info&lt;/font&gt;" style="rounded=1;whiteSpace=wrap;html=1;fillColor=#f5f5f5;strokeColor=#666666;fontSize=16;fontColor=#333333;" parent="1" vertex="1">
          <mxGeometry x="620" y="270" width="180" height="50" as="geometry" />
        </mxCell>
        <mxCell id="DLgcKnbPgFEMm8L9QBdC-4" value="&lt;font style=&quot;font-size: 14px;&quot;&gt;crm_prd_info&lt;/font&gt;" style="rounded=1;whiteSpace=wrap;html=1;fillColor=#f5f5f5;strokeColor=#666666;fontSize=16;fontColor=#333333;" parent="1" vertex="1">
          <mxGeometry x="620" y="330" width="180" height="50" as="geometry" />
        </mxCell>
        <mxCell id="DLgcKnbPgFEMm8L9QBdC-5" value="&lt;font style=&quot;font-size: 14px;&quot;&gt;crm_sales_details&lt;/font&gt;" style="rounded=1;whiteSpace=wrap;html=1;fillColor=#f5f5f5;strokeColor=#666666;fontSize=16;fontColor=#333333;" parent="1" vertex="1">
          <mxGeometry x="620" y="390" width="180" height="50" as="geometry" />
        </mxCell>
        <mxCell id="DLgcKnbPgFEMm8L9QBdC-6" value="&lt;font style=&quot;font-size: 14px;&quot;&gt;erp_cust_az12&lt;/font&gt;" style="rounded=1;whiteSpace=wrap;html=1;fillColor=#f5f5f5;strokeColor=#666666;fontSize=16;fontColor=#333333;" parent="1" vertex="1">
          <mxGeometry x="620" y="490" width="180" height="50" as="geometry" />
        </mxCell>
        <mxCell id="DLgcKnbPgFEMm8L9QBdC-7" value="&lt;font style=&quot;font-size: 14px;&quot;&gt;erp_loc_a101&lt;/font&gt;" style="rounded=1;whiteSpace=wrap;html=1;fillColor=#f5f5f5;strokeColor=#666666;fontSize=16;fontColor=#333333;" parent="1" vertex="1">
          <mxGeometry x="620" y="550" width="180" height="50" as="geometry" />
        </mxCell>
        <mxCell id="DLgcKnbPgFEMm8L9QBdC-8" value="&lt;font style=&quot;font-size: 14px;&quot;&gt;erp_px_cat_g1v2&lt;/font&gt;" style="rounded=1;whiteSpace=wrap;html=1;fillColor=#f5f5f5;strokeColor=#666666;fontSize=16;fontColor=#333333;" parent="1" vertex="1">
          <mxGeometry x="620" y="610" width="180" height="50" as="geometry" />
        </mxCell>
        <mxCell id="WI3vFO2ykzqVCDoUhCLl-1" value="" style="rounded=1;whiteSpace=wrap;html=1;fillStyle=hatch;fillColor=#f5f5f5;strokeColor=#666666;fontColor=#333333;" vertex="1" parent="1">
          <mxGeometry x="900" y="230" width="200" height="470" as="geometry" />
        </mxCell>
        <mxCell id="WI3vFO2ykzqVCDoUhCLl-2" value="&lt;b&gt;&lt;font style=&quot;font-size: 18px;&quot;&gt;Gold Layer&lt;/font&gt;&lt;/b&gt;" style="rounded=1;whiteSpace=wrap;html=1;fillColor=#fff2cc;strokeColor=#d6b656;fontSize=16;" vertex="1" parent="1">
          <mxGeometry x="900" y="170" width="200" height="50" as="geometry" />
        </mxCell>
        <mxCell id="WI3vFO2ykzqVCDoUhCLl-3" value="&lt;font style=&quot;font-size: 14px;&quot;&gt;fact_sales&lt;/font&gt;" style="rounded=1;whiteSpace=wrap;html=1;fillColor=#f5f5f5;strokeColor=#666666;fontSize=16;fontColor=#333333;" vertex="1" parent="1">
          <mxGeometry x="920" y="270" width="180" height="50" as="geometry" />
        </mxCell>
        <mxCell id="WI3vFO2ykzqVCDoUhCLl-4" value="&lt;font style=&quot;font-size: 14px;&quot;&gt;dim_customers&lt;/font&gt;" style="rounded=1;whiteSpace=wrap;html=1;fillColor=#f5f5f5;strokeColor=#666666;fontSize=16;fontColor=#333333;" vertex="1" parent="1">
          <mxGeometry x="910" y="430" width="180" height="50" as="geometry" />
        </mxCell>
        <mxCell id="WI3vFO2ykzqVCDoUhCLl-5" value="&lt;font style=&quot;font-size: 14px;&quot;&gt;dim_products&lt;/font&gt;" style="rounded=1;whiteSpace=wrap;html=1;fillColor=#f5f5f5;strokeColor=#666666;fontSize=16;fontColor=#333333;" vertex="1" parent="1">
          <mxGeometry x="910" y="540" width="180" height="50" as="geometry" />
        </mxCell>
        <mxCell id="WI3vFO2ykzqVCDoUhCLl-11" value="" style="endArrow=classic;html=1;rounded=0;entryX=0;entryY=0.5;entryDx=0;entryDy=0;exitX=1;exitY=0.5;exitDx=0;exitDy=0;" edge="1" parent="1" source="DLgcKnbPgFEMm8L9QBdC-3" target="WI3vFO2ykzqVCDoUhCLl-3">
          <mxGeometry width="50" height="50" relative="1" as="geometry">
            <mxPoint x="830" y="350" as="sourcePoint" />
            <mxPoint x="880" y="300" as="targetPoint" />
          </mxGeometry>
        </mxCell>
        <mxCell id="WI3vFO2ykzqVCDoUhCLl-12" value="" style="endArrow=classic;html=1;rounded=0;entryX=0;entryY=0.5;entryDx=0;entryDy=0;exitX=1;exitY=0.5;exitDx=0;exitDy=0;jumpStyle=gap;" edge="1" parent="1" source="DLgcKnbPgFEMm8L9QBdC-4" target="WI3vFO2ykzqVCDoUhCLl-4">
          <mxGeometry width="50" height="50" relative="1" as="geometry">
            <mxPoint x="820" y="354.5" as="sourcePoint" />
            <mxPoint x="940" y="354.5" as="targetPoint" />
          </mxGeometry>
        </mxCell>
        <mxCell id="WI3vFO2ykzqVCDoUhCLl-13" value="" style="endArrow=classic;html=1;rounded=0;entryX=0;entryY=0.5;entryDx=0;entryDy=0;exitX=1;exitY=0.5;exitDx=0;exitDy=0;jumpStyle=gap;" edge="1" parent="1" source="DLgcKnbPgFEMm8L9QBdC-5" target="WI3vFO2ykzqVCDoUhCLl-5">
          <mxGeometry width="50" height="50" relative="1" as="geometry">
            <mxPoint x="820" y="315" as="sourcePoint" />
            <mxPoint x="940" y="315" as="targetPoint" />
          </mxGeometry>
        </mxCell>
        <mxCell id="WI3vFO2ykzqVCDoUhCLl-14" value="" style="endArrow=classic;html=1;rounded=0;entryX=0;entryY=0.5;entryDx=0;entryDy=0;exitX=1;exitY=0.5;exitDx=0;exitDy=0;jumpStyle=gap;" edge="1" parent="1" source="DLgcKnbPgFEMm8L9QBdC-6" target="WI3vFO2ykzqVCDoUhCLl-4">
          <mxGeometry width="50" height="50" relative="1" as="geometry">
            <mxPoint x="830" y="325" as="sourcePoint" />
            <mxPoint x="950" y="325" as="targetPoint" />
          </mxGeometry>
        </mxCell>
        <mxCell id="WI3vFO2ykzqVCDoUhCLl-15" value="" style="endArrow=classic;html=1;rounded=0;entryX=0;entryY=0.5;entryDx=0;entryDy=0;exitX=1;exitY=0.5;exitDx=0;exitDy=0;jumpStyle=gap;" edge="1" parent="1" source="DLgcKnbPgFEMm8L9QBdC-7" target="WI3vFO2ykzqVCDoUhCLl-4">
          <mxGeometry width="50" height="50" relative="1" as="geometry">
            <mxPoint x="840" y="335" as="sourcePoint" />
            <mxPoint x="960" y="335" as="targetPoint" />
          </mxGeometry>
        </mxCell>
        <mxCell id="WI3vFO2ykzqVCDoUhCLl-16" value="" style="endArrow=classic;html=1;rounded=0;entryX=0;entryY=0.5;entryDx=0;entryDy=0;exitX=1;exitY=0.5;exitDx=0;exitDy=0;jumpStyle=gap;" edge="1" parent="1" source="DLgcKnbPgFEMm8L9QBdC-8" target="WI3vFO2ykzqVCDoUhCLl-5">
          <mxGeometry width="50" height="50" relative="1" as="geometry">
            <mxPoint x="850" y="345" as="sourcePoint" />
            <mxPoint x="970" y="345" as="targetPoint" />
          </mxGeometry>
        </mxCell>
      </root>
    </mxGraphModel>
  </diagram>
</mxfile>
